<svg viewBox="0 0 553 477" fill="none" xmlns="http://www.w3.org/2000/svg">
<path d="M141.224 42.5003C128.024 20.5003 89.3903 5.66697 71.7236 1.00031M71.7236 1.00031C62.7236 21.3336 53.7236 66.5003 89.7236 84.5003M71.7236 1.00031C64.2236 13.5003 109.224 58.0003 112.724 60.0003M141.224 135.5C129.224 131.834 102.524 131.9 99.7236 163.5M133.724 147C123.724 149 114.324 170.6 122.724 181M144.724 155C142.89 164 141.524 182.3 150.724 183.5M241.224 135.5C253.224 131.834 279.924 131.9 282.724 163.5M247.224 147C257.224 149 266.624 170.6 258.224 181M234.724 155C236.557 164 237.924 182.3 228.724 183.5M251 42.5003C264.2 20.5003 302.833 5.66697 320.5 1.00031M320.5 1.00031C320.689 1.42806 320.879 1.86681 321.068 2.31607M320.5 1.00031C320.743 1.40603 320.932 1.84546 321.068 2.31607M321.068 2.31607C329.859 23.222 334.743 66.3787 299.5 84M321.068 2.31607C325.122 16.3443 282.886 58.0652 279.5 60.0003" stroke-width="2" stroke-linecap="round" stroke-linejoin="round"/>
<path d="M238.504 216.659C238.504 213.659 254.907 241.409 227.004 276.921M238.504 216.659C264.838 207.826 316.504 177.359 312.504 126.159C308.504 74.9589 267.504 47.8255 247.504 40.6589C230.837 34.9922 189.304 26.3589 156.504 37.1589C115.504 50.6589 92.0911 75.7611 82.0042 100.159C72.7692 122.496 85.5465 168.293 98.0042 181.659C110.769 195.354 144.504 238.159 238.504 216.659ZM203.504 300.159C213.555 292.084 221.215 284.289 227.004 276.921M195.004 348.159C194.004 356.159 203.704 387.959 204.504 389.159C205.504 390.659 205.504 395.159 203.004 396.659C200.504 398.159 194.004 401.659 185.504 398.159C178.704 395.359 172.004 390.659 168.004 385.159C164.004 379.659 161.204 369.459 162.004 366.659C162.616 364.519 163.266 341.416 163.687 322.159M195.004 348.159C196.004 340.159 195.301 344.794 196.004 340.659C198.266 327.352 203.504 301.159 203.504 301.159L207.004 278.159M195.004 348.159C200.337 360.492 209.504 389.159 215.504 391.159C221.504 393.159 234.671 393.159 242.004 391.159C252.804 382.359 247.504 373.159 243.504 369.659C217.504 339.259 221.671 295.167 227.004 276.921M164.004 306.159C163.926 310.64 163.817 316.216 163.687 322.159M163.687 322.159C158.16 325.959 148.371 332.004 140.004 335.521M128.004 338.159C130.791 338.746 135.159 337.557 140.004 335.521M116.504 294.159C154.904 330.159 117.171 352.492 90.0042 362.659C100.526 361.058 114.563 362.093 127.004 364.684M123.504 204.565C124.504 204.565 116.504 214.159 111.004 219.659C106.604 224.059 96.1708 229.826 91.5042 232.159C74.6708 241.326 38.1042 263.359 26.5042 278.159C18.4648 288.416 20.3545 308.745 23.1901 322.159M23.1901 322.159C25.4689 332.938 27.9447 337.48 29.5042 342.159C32.3042 350.559 38.3375 355.326 41.0042 356.659C40.1708 354.659 38.0042 353.059 36.0042 362.659C34.0042 372.259 81 380.326 104 385.159C110 388 115.626 392.109 127.004 394.856M23.1901 322.159C15.2976 323.188 1.64659 324.44 2.50415 340.659C2.89677 348.085 1.00415 350.159 7.00415 366.659C13.0042 383.159 36.0042 391.356 41.0042 394.856C46.0042 398.356 88.5042 411.159 97.0042 414.659C105.504 418.159 112.204 452.259 83.0042 448.659C72.0042 444.326 48.0042 436.659 41.0042 437.659C34.0042 438.659 28.6042 459.259 41.0042 465.659C47.5042 465.659 83.0042 492.659 124.504 456.659C166.004 420.659 102.004 385.553 127.004 394.856M127.004 394.856C139.048 397.764 147.504 400.444 147.504 399.159C153.004 401.659 160.004 391.659 156.004 378.659C154.268 373.016 141.759 367.757 127.004 364.684M140.004 335.521C139.837 343.917 137.004 361.504 127.004 364.684M207.004 135.159C202.837 132.826 192.404 129.559 184.004 135.159C186.004 139.659 192.724 146 194.724 146C196.724 146 203.004 139.659 207.004 135.159Z" stroke-width="3" stroke-linecap="round" stroke-linejoin="round"/>
<circle r="15" transform="matrix(-1 0 0 1 151.724 108)" fill="#2B437B"/>
<circle r="15" transform="matrix(-1 0 0 1 233.724 108)" fill="#2B437B"/>
<path d="M194.724 147.5C194.724 158.239 194.724 164.261 194.724 175M194.724 175C199.891 177.667 215.224 180 213.724 171.5M194.724 175C187.224 178.667 173.724 178 174.724 171.5"  stroke-width="2" stroke-linecap="round"/>
<!-- <path d="M220 107.393C225.333 101.059 238.7 92.1927 249.5 107.393M137 107.893C142.333 101.559 155.7 92.6927 166.5 107.893" stroke-width="3" stroke-linecap="round"/> -->
<!-- <path d="M186 172.417C189.599 171.797 193.007 170.433 195 169.393C196.82 170.433 200.072 171.797 203.787 172.417C202.525 176.576 199 177.993 195 178.393C191 178.793 186.667 176.909 186 172.417Z" fill="#2B437B"/> -->
<!-- <path d="M195 147.893V169.393M195 169.393C193.007 170.433 189.599 171.797 186 172.417M195 169.393C196.82 170.433 200.072 171.797 203.787 172.417M176.5 171.393C179.189 172.929 182.676 172.99 186 172.417M214.5 171.393C211.043 172.929 207.218 172.99 203.787 172.417M186 172.417C186.667 176.909 191 178.793 195 178.393C199 177.993 202.525 176.576 203.787 172.417" stroke-linecap="round"/> -->
<path d="M285 213L341.5 264" stroke-width="3" stroke-linecap="round"/>
<path class="svg-text" d="M367.238 278.07L368.117 276.77C368.469 276.465 368.715 276.289 368.855 276.242C369.02 276.172 369.219 276.137 369.453 276.137H369.699L370.191 276.277L370.508 276.559C370.742 276.77 370.941 277.109 371.105 277.578C371.27 278.023 371.41 278.504 371.527 279.02C371.645 279.535 371.738 280.039 371.809 280.531C371.879 281 371.949 281.375 372.02 281.656C372.184 282.43 372.312 283.086 372.406 283.625C372.5 284.164 372.582 284.668 372.652 285.137C372.723 285.605 372.793 286.109 372.863 286.648C372.957 287.188 373.086 287.844 373.25 288.617C373.438 289.578 373.602 290.504 373.742 291.395C373.906 292.262 373.988 293.164 373.988 294.102C373.988 294.945 373.836 295.508 373.531 295.789C373.227 296.07 372.84 296.211 372.371 296.211C372.02 296.164 371.727 296.023 371.492 295.789C371.258 295.555 371.129 295.227 371.105 294.805C371.129 294.617 371.141 294.441 371.141 294.277C371.164 294.113 371.176 293.938 371.176 293.75C371.176 292.836 371.07 291.957 370.859 291.113C370.672 290.246 370.484 289.344 370.297 288.406C369.969 286.719 369.711 285.266 369.523 284.047C369.359 282.828 369.137 281.68 368.855 280.602L368.68 280.848C368.234 281.504 367.789 282.195 367.344 282.922C366.898 283.625 366.465 284.328 366.043 285.031C365.645 285.734 365.258 286.402 364.883 287.035C364.531 287.668 364.215 288.23 363.934 288.723C363.512 289.215 363.102 289.461 362.703 289.461C362.328 289.461 361.965 289.273 361.613 288.898C361.285 288.5 360.969 288.008 360.664 287.422C360.359 286.836 360.078 286.215 359.82 285.559C359.586 284.879 359.375 284.27 359.188 283.73L358.098 281.164C357.91 282.055 357.758 283.016 357.641 284.047C357.547 285.055 357.477 286.109 357.43 287.211C357.383 288.289 357.348 289.391 357.324 290.516C357.324 291.641 357.324 292.754 357.324 293.855C357.324 294.277 357.172 294.617 356.867 294.875C356.562 295.133 356.246 295.262 355.918 295.262C355.496 295.262 355.18 295.156 354.969 294.945C354.781 294.734 354.652 294.441 354.582 294.066C354.512 293.691 354.477 293.27 354.477 292.801C354.477 292.309 354.477 291.793 354.477 291.254C354.477 289.637 354.512 288.031 354.582 286.438C354.652 284.844 354.852 283.238 355.18 281.621C355.273 281.316 355.344 280.895 355.391 280.355C355.461 279.793 355.566 279.254 355.707 278.738C355.871 278.223 356.094 277.777 356.375 277.402C356.68 277.004 357.102 276.805 357.641 276.805C358.062 276.805 358.496 277.027 358.941 277.473C359.387 277.895 359.809 278.445 360.207 279.125C360.629 279.805 361.016 280.555 361.367 281.375C361.742 282.195 362.059 283.004 362.316 283.801C362.527 284.504 362.715 284.855 362.879 284.855C362.879 284.855 362.961 284.738 363.125 284.504C363.289 284.27 363.488 283.977 363.723 283.625C363.957 283.25 364.203 282.852 364.461 282.43C364.742 281.984 365 281.551 365.234 281.129L366.816 278.703C366.957 278.539 367.098 278.328 367.238 278.07ZM378.277 295.824C378.066 295.543 377.891 295.203 377.75 294.805C377.633 294.406 377.539 293.984 377.469 293.539C377.398 293.094 377.34 292.637 377.293 292.168C377.27 291.699 377.246 291.254 377.223 290.832L377.012 286.613C376.941 285.934 376.883 285.418 376.836 285.066C376.812 284.715 376.777 284.363 376.73 284.012C376.707 283.637 376.684 283.191 376.66 282.676C376.66 282.137 376.66 281.352 376.66 280.32C376.66 279.969 376.648 279.629 376.625 279.301C376.625 278.973 376.625 278.645 376.625 278.316C376.625 277.473 376.836 276.898 377.258 276.594C377.703 276.266 378.266 276.102 378.945 276.102C379.344 276.102 379.766 276.125 380.211 276.172C380.656 276.195 381.102 276.207 381.547 276.207C382.367 276.207 383.176 276.102 383.973 275.891C384.77 275.656 385.543 275.469 386.293 275.328C386.762 275.328 387.16 275.457 387.488 275.715C387.816 275.949 387.98 276.242 387.98 276.594C387.98 276.922 387.875 277.25 387.664 277.578C387.453 277.883 387.113 278.082 386.645 278.176C385.73 278.363 384.793 278.574 383.832 278.809C382.871 279.043 381.898 279.16 380.914 279.16C380.656 279.16 380.398 279.16 380.141 279.16C379.883 279.16 379.66 279.137 379.473 279.09C379.496 279.98 379.52 280.836 379.543 281.656C379.566 282.477 379.602 283.273 379.648 284.047H379.684C381.465 283.859 383.141 283.754 384.711 283.73C386.281 283.684 387.945 283.66 389.703 283.66C390.57 283.895 391.004 284.375 391.004 285.102C391.004 285.43 390.875 285.734 390.617 286.016C390.383 286.273 390.055 286.438 389.633 286.508C389.445 286.508 389.07 286.508 388.508 286.508C387.969 286.508 387.336 286.52 386.609 286.543C385.883 286.543 385.121 286.555 384.324 286.578C383.527 286.578 382.789 286.602 382.109 286.648C381.453 286.672 380.902 286.707 380.457 286.754C380.035 286.801 379.824 286.859 379.824 286.93C379.824 287.984 379.883 289.039 380 290.094C380.141 291.125 380.258 292.145 380.352 293.152C380.984 292.918 381.676 292.719 382.426 292.555C383.176 292.367 383.949 292.227 384.746 292.133C385.566 292.039 386.398 291.969 387.242 291.922C388.086 291.875 388.906 291.852 389.703 291.852C390.172 292.039 390.5 292.262 390.688 292.52C390.898 292.754 391.004 293.023 391.004 293.328C391.004 293.656 390.875 293.961 390.617 294.242C390.383 294.5 390.055 294.664 389.633 294.734C388.555 294.734 387.43 294.816 386.258 294.98C385.086 295.121 383.996 295.297 382.988 295.508C382.004 295.695 381.16 295.859 380.457 296C379.754 296.164 379.332 296.246 379.191 296.246C379.074 296.246 378.934 296.199 378.77 296.105C378.629 296.035 378.465 295.941 378.277 295.824ZM401.34 275.363C401.551 275.363 401.75 275.387 401.938 275.434C402.102 275.27 402.383 275.188 402.781 275.188C403.344 275.188 403.766 275.41 404.047 275.855L404.785 277.086C405.371 277.672 405.852 278.352 406.227 279.125C406.625 279.875 406.941 280.66 407.176 281.48C407.41 282.301 407.574 283.121 407.668 283.941C407.762 284.762 407.809 285.523 407.809 286.227C407.809 287.422 407.633 288.664 407.281 289.953C406.93 291.242 406.297 292.414 405.383 293.469C404.539 294.547 403.777 295.332 403.098 295.824C402.418 296.293 401.598 296.527 400.637 296.527C400.238 296.527 399.723 296.48 399.09 296.387C398.48 296.293 397.848 296.094 397.191 295.789C396.559 295.484 395.961 295.039 395.398 294.453C394.836 293.867 394.426 293.082 394.168 292.098C393.934 291.277 393.758 290.562 393.641 289.953C393.547 289.32 393.5 288.688 393.5 288.055C393.5 286.93 393.594 285.828 393.781 284.75C393.992 283.648 394.273 282.629 394.625 281.691C394.977 280.73 395.398 279.875 395.891 279.125C396.406 278.375 396.969 277.777 397.578 277.332C398.562 276.629 399.816 275.973 401.34 275.363ZM402.113 278.141L401.129 278.457C400.473 278.668 399.898 279.02 399.406 279.512C398.914 279.98 398.492 280.52 398.141 281.129C397.789 281.738 397.496 282.383 397.262 283.062C397.027 283.719 396.84 284.352 396.699 284.961C396.559 285.57 396.453 286.109 396.383 286.578C396.336 287.047 396.312 287.375 396.312 287.562C396.312 289.203 396.77 290.902 397.684 292.66C398.129 293.035 398.574 293.316 399.02 293.504C399.488 293.691 400.086 293.785 400.812 293.785C400.859 293.785 400.93 293.762 401.023 293.715L401.234 293.645C401.281 293.621 401.328 293.598 401.375 293.574C401.422 293.551 401.469 293.516 401.516 293.469L401.973 293.082C402.066 293.059 402.137 292.988 402.184 292.871C402.605 292.402 402.98 291.934 403.309 291.465C403.66 290.996 403.953 290.492 404.188 289.953C404.445 289.391 404.633 288.793 404.75 288.16C404.891 287.504 404.961 286.766 404.961 285.945C404.961 284.867 404.809 283.801 404.504 282.746C404.223 281.668 403.812 280.672 403.273 279.758C402.875 279.242 402.605 278.914 402.465 278.773C402.348 278.609 402.254 278.434 402.184 278.246L402.113 278.141ZM426.09 290.551C426.699 288.652 427.191 286.777 427.566 284.926C427.941 283.051 428.293 281.164 428.621 279.266C428.691 278.867 428.855 278.551 429.113 278.316C429.395 278.082 429.711 277.965 430.062 277.965C430.461 277.965 430.789 278.105 431.047 278.387C431.328 278.668 431.469 279.066 431.469 279.582C431.094 282.043 430.59 284.516 429.957 287C429.324 289.461 428.703 291.793 428.094 293.996C427.953 294.512 427.801 294.945 427.637 295.297C427.473 295.625 427.121 295.848 426.582 295.965H426.477C426.078 295.941 425.832 295.883 425.738 295.789L425.492 295.543C425.07 294.957 424.766 294.406 424.578 293.891C424.391 293.352 424.203 292.812 424.016 292.273C423.688 291.547 423.289 290.738 422.82 289.848C422.375 288.934 421.965 287.984 421.59 287L421.344 286.332C420.922 287.246 420.547 288.125 420.219 288.969C419.891 289.812 419.574 290.645 419.27 291.465C418.988 292.285 418.695 293.105 418.391 293.926C418.086 294.746 417.746 295.578 417.371 296.422C417.113 296.773 416.75 297.008 416.281 297.125H416.176C415.754 297.078 415.391 296.926 415.086 296.668C414.781 296.434 414.605 296.117 414.559 295.719C414.254 294.383 413.996 293.07 413.785 291.781C413.574 290.469 413.316 289.18 413.012 287.914C412.449 285.922 411.934 283.965 411.465 282.043C410.996 280.121 410.621 278.094 410.34 275.961C410.316 275.891 410.305 275.797 410.305 275.68C410.305 275.281 410.434 274.941 410.691 274.66C410.973 274.379 411.312 274.238 411.711 274.238C411.992 274.238 412.273 274.332 412.555 274.52C412.836 274.707 413.035 275.012 413.152 275.434C413.434 277.543 413.809 279.547 414.277 281.445C414.746 283.32 415.25 285.266 415.789 287.281L416.562 290.973L416.703 290.27L417.371 288.371C417.77 287.246 418.18 286.145 418.602 285.066C419.023 283.988 419.457 282.887 419.902 281.762C419.949 281.668 419.984 281.516 420.008 281.305C420.055 281.07 420.125 280.848 420.219 280.637C420.336 280.402 420.488 280.203 420.676 280.039C420.887 279.875 421.191 279.781 421.59 279.758H421.66C422.293 279.922 422.703 280.367 422.891 281.094L422.926 281.762C422.973 282.605 423.195 283.531 423.594 284.539C423.992 285.547 424.414 286.543 424.859 287.527C425.047 288.09 425.234 288.629 425.422 289.145C425.633 289.637 425.855 290.105 426.09 290.551Z" fill="#2B437B"/>
</svg>
